 <svg width="98" height="16" viewBox="0 0 98 16" fill="none" xmlns="http://www.w3.org/2000/svg">
<g id="Shape">
<path id="Star 1" d="M9.65541 0L11.9761 5.08754L17.9997 5.52786L13.4103 9.11246L14.8124 14.4721L9.65541 11.6L4.49838 14.4721L5.9005 9.11246L1.31116 5.52786L7.33475 5.08754L9.65541 0Z" fill="#FE8B75"/>
<path id="Star 2" d="M29.3965 0L31.7172 5.08754L37.7408 5.52786L33.1514 9.11246L34.5535 14.4721L29.3965 11.6L24.2395 14.4721L25.6416 9.11246L21.0523 5.52786L27.0758 5.08754L29.3965 0Z" fill="#FE8B75"/>
<path id="Star 3" d="M49.1366 0L51.4573 5.08754L57.4809 5.52786L52.8915 9.11246L54.2937 14.4721L49.1366 11.6L43.9796 14.4721L45.3817 9.11246L40.7924 5.52786L46.816 5.08754L49.1366 0Z" fill="#FE8B75"/>
<path id="Star 4" d="M68.8777 0L71.1984 5.08754L77.222 5.52786L72.6326 9.11246L74.0348 14.4721L68.8777 11.6L63.7207 14.4721L65.1228 9.11246L60.5335 5.52786L66.5571 5.08754L68.8777 0Z" fill="#FE8B75"/>
<path id="Star 5" d="M88.6188 0L90.9395 5.08754L96.9631 5.52786L92.3737 9.11246L93.7759 14.4721L88.6188 11.6L83.4618 14.4721L84.8639 9.11246L80.2746 5.52786L86.2982 5.08754L88.6188 0Z" fill="#FE8B75"/>
</g>
</svg>
